HIERARCHY
ROOT mixamorig:Hips
{
	OFFSET 0.000000 201.639420 0.000000
	CHANNELS 6 Xposition Yposition Zposition Xrotation Yrotation Zrotation
	JOINT mixamorig:Spine
	{
		OFFSET 0.006200 19.524994 -2.481800
		CHANNELS 3 Xrotation Yrotation Zrotation
		JOINT mixamorig:Spine1
		{
			OFFSET -0.000900 22.835007 -2.825400
			CHANNELS 3 Xrotation Yrotation Zrotation
			JOINT mixamorig:Spine2
			{
				OFFSET -0.020600 26.552490 -3.193300
				CHANNELS 3 Xrotation Yrotation Zrotation
				JOINT mixamorig:Neck
				{
					OFFSET -0.060000 30.701813 1.352200
					CHANNELS 3 Xrotation Yrotation Zrotation
					JOINT mixamorig:Head
					{
						OFFSET -0.087200 22.547607 3.670900
						CHANNELS 3 Xrotation Yrotation Zrotation
						JOINT mixamorig:HeadTop_End
						{
							OFFSET -0.830600 40.355194 7.893500
							CHANNELS 3 Xrotation Yrotation Zrotation
							End Site
							{
								OFFSET 0.000000 30.592346 0.000000
							}
						}
						JOINT mixamorig:RightEye
						{
							OFFSET -6.302100 18.118591 16.197100
							CHANNELS 3 Xrotation Yrotation Zrotation
							End Site
							{
								OFFSET 0.000000 30.592346 0.000000
							}
						}
						JOINT mixamorig:LeftEye
						{
							OFFSET 6.741500 18.382690 16.401899
							CHANNELS 3 Xrotation Yrotation Zrotation
							End Site
							{
								OFFSET 0.000000 30.592346 0.000000
							}
						}
					}
				}
				JOINT mixamorig:LeftShoulder
				{
					OFFSET 11.924900 18.230499 1.425400
					CHANNELS 3 Xrotation Yrotation Zrotation
					JOINT mixamorig:LeftArm
					{
						OFFSET 25.435989 -0.697632 -5.229300
						CHANNELS 3 Xrotation Yrotation Zrotation
						JOINT mixamorig:LeftForeArm
						{
							OFFSET 54.684776 0.000000 0.000000
							CHANNELS 3 Xrotation Yrotation Zrotation
							JOINT mixamorig:LeftHand
							{
								OFFSET 55.098175 0.000000 0.000000
								CHANNELS 3 Xrotation Yrotation Zrotation
								JOINT mixamorig:LeftHandMiddle1
								{
									OFFSET 23.369751 0.000000 0.000000
									CHANNELS 3 Xrotation Yrotation Zrotation
									JOINT mixamorig:LeftHandMiddle2
									{
										OFFSET 6.378677 0.000000 0.000000
										CHANNELS 3 Xrotation Yrotation Zrotation
										JOINT mixamorig:LeftHandMiddle3
										{
											OFFSET 6.148331 0.000000 0.000000
											CHANNELS 3 Xrotation Yrotation Zrotation
											JOINT mixamorig:LeftHandMiddle4
											{
												OFFSET 6.582504 0.000000 0.000000
												CHANNELS 3 Xrotation Yrotation Zrotation
												End Site
												{
													OFFSET -1.168900 6.395691 1.028606
												}
											}
										}
									}
								}
								JOINT mixamorig:LeftHandThumb1
								{
									OFFSET 7.235672 -3.848206 5.434273
									CHANNELS 3 Xrotation Yrotation Zrotation
									JOINT mixamorig:LeftHandThumb2
									{
										OFFSET 6.568451 -3.792297 3.792300
										CHANNELS 3 Xrotation Yrotation Zrotation
										JOINT mixamorig:LeftHandThumb3
										{
											OFFSET 6.063080 -3.500519 3.500518
											CHANNELS 3 Xrotation Yrotation Zrotation
											JOINT mixamorig:LeftHandThumb4
											{
												OFFSET 4.793182 -2.767334 2.767349
												CHANNELS 3 Xrotation Yrotation Zrotation
												End Site
												{
													OFFSET 0.101639 6.054260 1.275483
												}
											}
										}
									}
								}
								JOINT mixamorig:LeftHandIndex1
								{
									OFFSET 23.101074 -0.309540 4.992809
									CHANNELS 3 Xrotation Yrotation Zrotation
									JOINT mixamorig:LeftHandIndex2
									{
										OFFSET 6.226883 0.000000 0.000000
										CHANNELS 3 Xrotation Yrotation Zrotation
										JOINT mixamorig:LeftHandIndex3
										{
											OFFSET 6.094330 0.000000 0.000000
											CHANNELS 3 Xrotation Yrotation Zrotation
											JOINT mixamorig:LeftHandIndex4
											{
												OFFSET 5.482605 0.000000 0.000000
												CHANNELS 3 Xrotation Yrotation Zrotation
												End Site
												{
													OFFSET -1.427902 5.233032 0.797164
												}
											}
										}
									}
								}
								JOINT mixamorig:LeftHandRing1
								{
									OFFSET 22.299240 0.021149 -3.964172
									CHANNELS 3 Xrotation Yrotation Zrotation
									JOINT mixamorig:LeftHandRing2
									{
										OFFSET 6.321869 0.000000 0.000000
										CHANNELS 3 Xrotation Yrotation Zrotation
										JOINT mixamorig:LeftHandRing3
										{
											OFFSET 5.899796 0.000000 0.000000
											CHANNELS 3 Xrotation Yrotation Zrotation
											JOINT mixamorig:LeftHandRing4
											{
												OFFSET 6.517899 0.000000 0.000000
												CHANNELS 3 Xrotation Yrotation Zrotation
												End Site
												{
													OFFSET -1.637299 6.232208 0.980890
												}
											}
										}
									}
								}
								JOINT mixamorig:LeftHandPinky1
								{
									OFFSET 20.463791 -0.302338 -8.562233
									CHANNELS 3 Xrotation Yrotation Zrotation
									JOINT mixamorig:LeftHandPinky2
									{
										OFFSET 6.908646 0.000000 0.000000
										CHANNELS 3 Xrotation Yrotation Zrotation
										JOINT mixamorig:LeftHandPinky3
										{
											OFFSET 4.622849 0.000000 0.000000
											CHANNELS 3 Xrotation Yrotation Zrotation
											JOINT mixamorig:LeftHandPinky4
											{
												OFFSET 5.216080 0.000000 0.000000
												CHANNELS 3 Xrotation Yrotation Zrotation
												End Site
												{
													OFFSET -0.606308 5.116241 0.814926
												}
											}
										}
									}
								}
							}
						}
					}
				}
				JOINT mixamorig:RightShoulder
				{
					OFFSET -12.001300 18.284088 1.348900
					CHANNELS 3 Xrotation Yrotation Zrotation
					JOINT mixamorig:RightArm
					{
						OFFSET -25.308500 -0.751312 -5.164599
						CHANNELS 3 Xrotation Yrotation Zrotation
						JOINT mixamorig:RightForeArm
						{
							OFFSET -54.684429 0.000000 0.000000
							CHANNELS 3 Xrotation Yrotation Zrotation
							JOINT mixamorig:RightHand
							{
								OFFSET -55.150291 0.000000 0.000000
								CHANNELS 3 Xrotation Yrotation Zrotation
								JOINT mixamorig:RightHandMiddle1
								{
									OFFSET -23.317566 0.000000 0.000000
									CHANNELS 3 Xrotation Yrotation Zrotation
									JOINT mixamorig:RightHandMiddle2
									{
										OFFSET -6.378403 0.000000 0.000000
										CHANNELS 3 Xrotation Yrotation Zrotation
										JOINT mixamorig:RightHandMiddle3
										{
											OFFSET -6.148193 0.000000 0.000000
											CHANNELS 3 Xrotation Yrotation Zrotation
											JOINT mixamorig:RightHandMiddle4
											{
												OFFSET -6.583389 0.000000 0.000000
												CHANNELS 3 Xrotation Yrotation Zrotation
												End Site
												{
													OFFSET 1.171692 6.395905 1.029786
												}
											}
										}
									}
								}
								JOINT mixamorig:RightHandThumb1
								{
									OFFSET -7.190521 -3.860474 5.435846
									CHANNELS 3 Xrotation Yrotation Zrotation
									JOINT mixamorig:RightHandThumb2
									{
										OFFSET -6.567429 -3.791718 3.791708
										CHANNELS 3 Xrotation Yrotation Zrotation
										JOINT mixamorig:RightHandThumb3
										{
											OFFSET -6.062469 -3.500153 3.500166
											CHANNELS 3 Xrotation Yrotation Zrotation
											JOINT mixamorig:RightHandThumb4
											{
												OFFSET -4.792618 -2.767029 2.767022
												CHANNELS 3 Xrotation Yrotation Zrotation
												End Site
												{
													OFFSET -0.100327 6.053253 1.276754
												}
											}
										}
									}
								}
								JOINT mixamorig:RightHandIndex1
								{
									OFFSET -23.048981 -0.310791 4.992554
									CHANNELS 3 Xrotation Yrotation Zrotation
									JOINT mixamorig:RightHandIndex2
									{
										OFFSET -6.227539 0.000000 0.000000
										CHANNELS 3 Xrotation Yrotation Zrotation
										JOINT mixamorig:RightHandIndex3
										{
											OFFSET -6.095047 0.000000 0.000000
											CHANNELS 3 Xrotation Yrotation Zrotation
											JOINT mixamorig:RightHandIndex4
											{
												OFFSET -5.484772 0.000000 0.000000
												CHANNELS 3 Xrotation Yrotation Zrotation
												End Site
												{
													OFFSET 1.420593 5.237305 0.797056
												}
											}
										}
									}
								}
								JOINT mixamorig:RightHandRing1
								{
									OFFSET -22.246323 0.020569 -3.963762
									CHANNELS 3 Xrotation Yrotation Zrotation
									JOINT mixamorig:RightHandRing2
									{
										OFFSET -6.322128 0.000000 0.000000
										CHANNELS 3 Xrotation Yrotation Zrotation
										JOINT mixamorig:RightHandRing3
										{
											OFFSET -5.900024 0.000000 0.000000
											CHANNELS 3 Xrotation Yrotation Zrotation
											JOINT mixamorig:RightHandRing4
											{
												OFFSET -6.518356 0.000000 0.000000
												CHANNELS 3 Xrotation Yrotation Zrotation
												End Site
												{
													OFFSET 1.636398 6.232697 0.982186
												}
											}
										}
									}
								}
								JOINT mixamorig:RightHandPinky1
								{
									OFFSET -20.411011 -0.303314 -8.561701
									CHANNELS 3 Xrotation Yrotation Zrotation
									JOINT mixamorig:RightHandPinky2
									{
										OFFSET -6.907349 0.000000 0.000000
										CHANNELS 3 Xrotation Yrotation Zrotation
										JOINT mixamorig:RightHandPinky3
										{
											OFFSET -4.623840 0.000000 0.000000
											CHANNELS 3 Xrotation Yrotation Zrotation
											JOINT mixamorig:RightHandPinky4
											{
												OFFSET -5.218353 0.000000 0.000000
												CHANNELS 3 Xrotation Yrotation Zrotation
												End Site
												{
													OFFSET 0.602097 5.118835 0.816273
												}
											}
										}
									}
								}
							}
						}
					}
				}
			}
		}
	}
	JOINT mixamorig:LeftUpLeg
	{
		OFFSET 18.168400 -13.561905 -0.039000
		CHANNELS 3 Xrotation Yrotation Zrotation
		JOINT mixamorig:LeftLeg
		{
			OFFSET 0.577358 -80.825211 -3.695000
			CHANNELS 3 Xrotation Yrotation Zrotation
			JOINT mixamorig:LeftFoot
			{
				OFFSET -0.577356 -83.370262 -6.520700
				CHANNELS 3 Xrotation Yrotation Zrotation
				JOINT mixamorig:LeftToeBase
				{
					OFFSET 0.750401 -20.798306 25.135401
					CHANNELS 3 Xrotation Yrotation Zrotation
					JOINT mixamorig:LeftToe_End
					{
						OFFSET -0.000500 0.001200 19.917799
						CHANNELS 3 Xrotation Yrotation Zrotation
						End Site
						{
							OFFSET 0.000000 19.917805 0.000000
						}
					}
				}
			}
		}
	}
	JOINT mixamorig:RightUpLeg
	{
		OFFSET -18.162500 -13.585098 -0.041000
		CHANNELS 3 Xrotation Yrotation Zrotation
		JOINT mixamorig:RightLeg
		{
			OFFSET -0.595024 -80.945297 -3.631900
			CHANNELS 3 Xrotation Yrotation Zrotation
			JOINT mixamorig:RightFoot
			{
				OFFSET 0.595024 -83.218193 -6.561200
				CHANNELS 3 Xrotation Yrotation Zrotation
				JOINT mixamorig:RightToeBase
				{
					OFFSET -0.753601 -20.807106 25.115000
					CHANNELS 3 Xrotation Yrotation Zrotation
					JOINT mixamorig:RightToe_End
					{
						OFFSET 0.000299 0.001700 19.918200
						CHANNELS 3 Xrotation Yrotation Zrotation
						End Site
						{
							OFFSET 0.000000 19.918203 0.000000
						}
					}
				}
			}
		}
	}
}
MOTION
Frames: 5
Frame Time: 0.033333
0.501139 179.625870 2.574387 -0.222593 0.377862 -1.251353 15.557216 0.243180 0.454557 18.300502 0.461402 0.881216 9.157566 0.337975 0.843253 1.002800 -0.962444 1.085910 -21.890625 2.140395 -1.437630 -0.000002 -0.000000 -0.000000 -0.000002 -0.000000 -0.000000 -0.000002 -0.000000 -0.000000 20.071033 -18.164379 8.767804 -30.326791 -15.858403 -36.582025 -2.504425 -52.835014 -20.018116 -54.741743 -18.894180 -15.118965 -0.378217 10.912989 -22.176342 0.393113 2.026188 -21.957653 0.393129 2.026191 -21.957663 -0.000005 0.000000 -0.000000 37.238284 10.295438 -20.707395 2.295215 23.044208 15.130530 -9.261722 4.517163 17.869518 0.000003 0.000001 0.000000 -1.661818 12.033191 -35.890346 0.023695 -0.083491 -1.261748 -1.566257 0.136607 -38.937887 0.000000 -0.000000 -0.000001 -0.378263 10.912846 -22.174622 0.393041 2.026053 -21.955957 0.393053 2.026032 -21.955954 0.000002 0.000001 0.000001 -0.386764 10.907905 -22.173726 0.384719 2.021078 -21.956388 0.384719 2.021082 -21.956393 0.000001 -0.000001 -0.000001 17.231930 12.181593 -8.627219 -22.604842 6.506074 49.101345 -41.200920 61.667640 41.525020 -12.418101 -0.129507 18.626481 -2.402591 -0.500432 32.334184 0.778402 -2.790421 31.036987 0.777661 -2.796174 31.036513 0.000001 0.000001 -0.000000 42.013201 -1.842012 18.357880 5.156841 -21.099668 -19.108108 4.840287 2.612161 -13.833513 0.000001 0.000001 -0.000003 19.366872 4.218053 50.450653 -0.032910 11.765006 11.249439 -4.753347 8.430643 23.834847 0.000003 0.000001 -0.000001 -11.838428 -7.895532 30.433250 -8.974645 -8.729465 30.664162 -8.961825 -8.751761 30.658373 0.000000 -0.000001 0.000001 -15.670184 -0.684686 35.468073 0.750491 -2.749768 30.591430 1.344324 -3.570207 41.053795 0.000000 0.000001 0.000001 -36.229010 1.491218 25.523918 48.294550 -4.848896 -8.751621 -12.024039 -7.973232 -8.847539 -4.403574 -13.781253 -1.746098 -0.000000 -0.000001 -0.000000 -39.182917 -12.655292 -22.277331 48.371348 6.210587 -3.120618 -10.942127 3.481664 12.667190 -6.803245 10.108285 13.059575 -0.000000 -0.000000 0.000001 
0.480120 179.544846 2.416957 -0.246066 0.403605 -1.261989 15.580029 0.244215 0.453959 18.339951 0.462348 0.882536 9.233391 0.339213 0.848160 0.929507 -1.005173 1.124610 -21.918232 2.178785 -1.443950 -0.000001 -0.000000 -0.000000 -0.000001 -0.000000 -0.000000 -0.000001 -0.000000 -0.000000 20.078871 -18.165201 8.769895 -30.294194 -15.854672 -36.591113 -2.485428 -52.840724 -20.001330 -54.755748 -18.931341 -15.142471 -0.330141 10.930330 -22.252324 0.393112 2.026183 -21.957660 0.393128 2.026191 -21.957667 -0.000003 -0.000001 0.000001 37.227420 10.282750 -20.666264 2.295214 23.044206 15.130525 -9.206581 4.560781 17.792253 0.000000 0.000000 0.000001 -1.692686 11.990249 -35.806300 0.023501 -0.059185 -1.527268 -1.547492 0.133088 -38.862824 -0.000004 -0.000001 -0.000001 -0.330199 10.930197 -22.250607 0.393044 2.026053 -21.955957 0.393047 2.026033 -21.955961 -0.000000 -0.000000 -0.000001 -0.338715 10.925266 -22.249734 0.384727 2.021079 -21.956386 0.384717 2.021082 -21.956389 0.000001 -0.000001 -0.000000 17.240950 12.190546 -8.613974 -22.748409 6.578893 49.001208 -41.135678 61.628011 41.481446 -12.471096 -0.174222 18.519262 -2.453483 -0.500157 32.400157 0.778400 -2.790419 31.036984 0.777659 -2.796171 31.036509 -0.000001 0.000001 0.000002 42.000640 -1.811480 18.384294 5.156841 -21.099668 -19.108108 4.815660 2.575728 -13.923546 0.000001 -0.000001 0.000002 19.406589 4.167515 50.379513 -0.088264 11.738905 11.520469 -4.766158 8.448772 23.762479 -0.000001 0.000001 -0.000000 -11.880865 -7.906065 30.499018 -8.974639 -8.729462 30.664165 -8.961825 -8.751761 30.658373 -0.000002 -0.000000 0.000003 -15.720865 -0.699553 35.532355 0.750493 -2.749770 30.591434 1.344329 -3.570206 41.053791 0.000000 -0.000002 0.000000 -36.335739 1.482085 25.548751 48.394834 -4.838618 -8.728967 -11.999895 -8.052171 -8.851735 -4.411580 -13.742821 -1.740803 0.000000 0.000001 0.000000 -39.260826 -12.627576 -22.273421 48.483831 6.175505 -3.112207 -10.935044 3.460220 12.646316 -6.785832 10.083206 13.022305 0.000000 0.000000 -0.000001 
0.462355 179.455978 2.258027 -0.276662 0.438933 -1.263323 15.604995 0.245073 0.452843 18.383608 0.463882 0.885215 9.317220 0.339986 0.853241 0.844652 -1.053088 1.159519 -21.931353 2.210207 -1.451426 -0.000000 0.000000 0.000000 -0.000000 0.000000 0.000000 -0.000000 0.000000 0.000000 20.087122 -18.163075 8.771301 -30.263035 -15.851817 -36.601744 -2.464415 -52.845566 -19.982818 -54.770355 -18.971241 -15.167034 -0.276994 10.932948 -22.326058 0.393109 2.026188 -21.957660 0.393123 2.026188 -21.957660 0.000002 0.000001 -0.000001 37.215816 10.267826 -20.620257 2.295210 23.044203 15.130525 -9.142566 4.618104 17.714357 0.000000 0.000001 -0.000001 -1.724556 11.945331 -35.718983 0.023414 -0.033799 -1.803684 -1.527517 0.129257 -38.778549 0.000001 0.000000 -0.000000 -0.277058 10.932812 -22.324332 0.393043 2.026051 -21.955962 0.393056 2.026033 -21.955957 -0.000000 -0.000001 -0.000002 -0.285561 10.927879 -22.323471 0.384717 2.021083 -21.956384 0.384721 2.021082 -21.956393 -0.000002 0.000000 -0.000000 17.251149 12.200924 -8.599950 -22.895689 6.654634 48.897007 -41.068514 61.588369 41.436999 -12.525851 -0.217596 18.405389 -2.508821 -0.513456 32.459197 0.778395 -2.790421 31.036984 0.777658 -2.796170 31.036509 -0.000001 0.000001 -0.000000 41.985634 -1.777309 18.413678 5.156843 -21.099668 -19.108108 4.792090 2.524127 -14.019632 -0.000002 -0.000001 -0.000002 19.447663 4.114689 50.305610 -0.145715 11.711561 11.802590 -4.779450 8.469221 23.681157 0.000001 0.000002 -0.000003 -11.928920 -7.928852 30.555616 -8.974642 -8.729465 30.664168 -8.961825 -8.751762 30.658370 -0.000000 -0.000003 0.000001 -15.776048 -0.726045 35.586771 0.750496 -2.749767 30.591430 1.344325 -3.570206 41.053791 0.000002 0.000002 -0.000000 -36.439322 1.473005 25.569274 48.499749 -4.825130 -8.715001 -11.974974 -8.143394 -8.852405 -4.423437 -13.703885 -1.735919 0.000001 -0.000000 0.000000 -39.341060 -12.595986 -22.281940 48.612266 6.139554 -3.109893 -10.936470 3.437025 12.630320 -6.768104 10.057972 12.984393 0.000000 -0.000000 0.000000 
0.448288 179.363495 2.102349 -0.307510 0.480873 -1.262706 15.630258 0.245923 0.451614 18.427811 0.465599 0.888348 9.402214 0.339561 0.858545 0.752769 -1.115296 1.216750 -21.928230 2.258823 -1.474437 -0.000002 0.000000 -0.000000 -0.000002 0.000000 -0.000000 -0.000002 0.000000 -0.000000 20.100002 -18.155580 8.772295 -30.233621 -15.849642 -36.613106 -2.443393 -52.849326 -19.963825 -54.784165 -19.011372 -15.190520 -0.216255 10.920292 -22.406702 0.393113 2.026189 -21.957660 0.393125 2.026191 -21.957663 -0.000003 0.000000 0.000000 37.203668 10.250889 -20.569472 2.295209 23.044199 15.130525 -9.069921 4.689026 17.636221 -0.000002 0.000000 0.000002 -1.755809 11.900273 -35.617828 0.023428 -0.006288 -2.101980 -1.505413 0.124853 -38.679703 0.000002 0.000001 -0.000000 -0.216312 10.920158 -22.404972 0.393040 2.026054 -21.955957 0.393054 2.026034 -21.955957 0.000002 0.000000 -0.000000 -0.224838 10.915242 -22.404108 0.384720 2.021081 -21.956389 0.384721 2.021082 -21.956393 -0.000001 0.000001 -0.000000 17.262514 12.212691 -8.585237 -23.048180 6.733456 48.788273 -41.000632 61.548296 41.392736 -12.582324 -0.261019 18.286918 -2.571497 -0.542948 32.519401 0.778396 -2.790418 31.036987 0.777654 -2.796174 31.036516 -0.000001 -0.000000 0.000001 41.968309 -1.739691 18.446063 5.156844 -21.099670 -19.108105 4.769753 2.457516 -14.121380 -0.000001 -0.000001 -0.000001 19.489735 4.060084 50.217801 -0.207537 11.681839 12.106991 -4.793648 8.493304 23.585714 0.000003 0.000002 -0.000005 -11.984541 -7.967796 30.610705 -8.974644 -8.729464 30.664162 -8.961828 -8.751760 30.658370 -0.000001 -0.000000 0.000001 -15.838616 -0.768571 35.638605 0.750495 -2.749766 30.591437 1.344324 -3.570207 41.053791 -0.000001 0.000001 0.000001 -36.547506 1.465178 25.587845 48.612690 -4.807174 -8.704482 -11.952747 -8.246339 -8.848580 -4.435293 -13.664676 -1.730776 0.000000 -0.000001 -0.000000 -39.422045 -12.563600 -22.294366 48.746889 6.102569 -3.109492 -10.942575 3.409497 12.617111 -6.749397 10.032401 12.944319 -0.000000 0.000000 0.000000 
0.439611 179.267960 1.953584 -0.335934 0.520183 -1.261279 15.655420 0.246854 0.450405 18.471608 0.468234 0.894256 9.486553 0.336510 0.866054 0.658890 -1.166833 1.261357 -21.914768 2.299071 -1.496094 0.000001 -0.000000 0.000000 0.000001 -0.000000 0.000000 0.000001 -0.000000 0.000000 20.118742 -18.139254 8.771747 -30.206406 -15.848045 -36.625155 -2.423282 -52.851423 -19.945107 -54.796887 -19.050963 -15.212525 -0.158678 10.896415 -22.493744 0.393116 2.026189 -21.957660 0.393133 2.026190 -21.957667 0.000003 0.000001 -0.000000 37.190995 10.232171 -20.513968 2.295214 23.044203 15.130529 -8.988956 4.773452 17.558248 0.000003 -0.000000 0.000001 -1.786461 11.855333 -35.505055 0.023561 0.022624 -2.414594 -1.481820 0.119862 -38.571724 0.000000 0.000000 0.000000 -0.158727 10.896281 -22.491991 0.393043 2.026054 -21.955954 0.393053 2.026033 -21.955957 0.000000 -0.000000 -0.000001 -0.167254 10.891385 -22.491133 0.384719 2.021082 -21.956386 0.384718 2.021082 -21.956391 -0.000001 -0.000000 -0.000000 17.274978 12.225763 -8.569908 -23.205925 6.815672 48.675534 -40.933068 61.508155 41.349603 -12.640251 -0.305430 18.164350 -2.631191 -0.584961 32.583919 0.778402 -2.790423 31.036984 0.777662 -2.796171 31.036513 -0.000004 0.000002 0.000002 41.948836 -1.698914 18.481461 5.156843 -21.099663 -19.108106 4.748804 2.375964 -14.228398 -0.000002 -0.000001 0.000002 19.532504 4.004218 50.118309 -0.272135 11.650428 12.425956 -4.808517 8.519426 23.481369 0.000001 0.000002 -0.000002 -12.036885 -8.019793 30.668038 -8.974639 -8.729462 30.664165 -8.961823 -8.751762 30.658370 -0.000001 -0.000000 0.000002 -15.898191 -0.824257 35.691775 0.750493 -2.749766 30.591430 1.344328 -3.570208 41.053795 -0.000001 0.000001 0.000002 -36.661457 1.463734 25.606545 48.735804 -4.787557 -8.694099 -11.937525 -8.354314 -8.840700 -4.443876 -13.625268 -1.724830 0.000001 -0.000001 -0.000000 -39.504773 -12.527196 -22.307229 48.883322 6.067333 -3.112621 -10.949676 3.374078 12.609078 -6.729814 10.006370 12.902647 -0.000000 -0.000000 0.000001 
